<svg xmlns="http://www.w3.org/2000/svg" width="17" height="6.517" viewBox="0 0 17 6.517">
  <path id="パス_60" data-name="パス 60" d="M15.008,21.375a5.958,5.958,0,0,0-5.383,3.418,5.958,5.958,0,0,0-5.383-3.418H1.125v.567a5.957,5.957,0,0,0,5.95,5.95h5.1a5.957,5.957,0,0,0,5.95-5.95v-.567ZM7.075,26.758a4.824,4.824,0,0,1-4.784-4.25h1.95a4.824,4.824,0,0,1,4.784,4.25Zm5.1,0h-1.95a4.824,4.824,0,0,1,4.784-4.25h1.95A4.824,4.824,0,0,1,12.175,26.758Z" transform="translate(-1.125 -21.375)" fill="#8cbf92"/>
</svg>
