<!--?xml version="1.0" encoding="utf-8"?-->
<!-- Generator: Adobe Illustrator 18.1.1, SVG Export Plug-In . SVG Version: 6.00 Build 0)  -->

<svg version="1.1" id="_x31_0" xmlns="http://www.w3.org/2000/svg" xmlns:xlink="http://www.w3.org/1999/xlink" x="0px" y="0px" viewBox="0 0 512 512" style="width: 256px; height: 256px; opacity: 1;" xml:space="preserve">
<style type="text/css">
	.st0{fill:#374149;}
</style>
<g>
	<path class="st0" d="M310.702,158.676c10.054,0,19.238-3.973,25.941-11.047c3.477-3.722,6.207-8.066,7.821-12.66v-0.125
		c-12.039-17.996-27.554-33.391-45.551-45.43c-4.718,1.492-8.937,4.098-12.66,7.695c-7.324,6.828-11.172,15.89-11.172,25.695
		c0,9.554,3.723,18.617,10.426,25.32C292.335,154.953,301.269,158.676,310.702,158.676z" style="fill: rgb(75, 75, 75);"></path>
	<path class="st0" d="M317.827,269.094h-0.125c-17.626-0.125-34.629-3.102-50.766-8.812h-0.742l-18.246-7.696l-0.871-0.867
		l-5.21-2.359l-1.367-1.242c-22.961-13.406-41.828-32.394-55.23-55.605l-0.5-0.496l-2.73-5.34l-2.356-4.715l-0.746-1.613
		c0,0-2.11-4.594-2.606-5.711l-2.855-6.95v-0.374l-0.126-0.122v-0.496c-5.71-16.386-8.687-33.515-8.687-50.89
		c0-17.297,3.023-34.254,8.718-50.289c0.938-2.555,1.77-5.149,2.856-7.645c-0.031,0.008-0.062,0.019-0.098,0.023
		c0.023-0.058,0.038-0.121,0.066-0.179C120.35,69.879,75.045,109.598,55.186,161.977c-2.98,7.945-5.336,16.137-7.199,24.453
		c-1.242,5.957-2.48,11.914-3.351,17.871H44.51l-20.851,98.058l62.683,27.43v54.738c0,13.402,11.543,23.832,24.825,22.59
		l86.141-3.101l2.851-0.126v107.618v0.332l0,0V512h0.621l124.742-71.121v-95.203c1.738-1.738,3.477-3.352,5.215-5.09
		c18.367-18.242,32.394-40.586,40.586-65.66l-11.543-11.668C346.253,267.11,332.101,269.094,317.827,269.094z" style="fill: rgb(75, 75, 75);"></path>
	<path class="st0" d="M477.448,223.539l-28.05-28.297l-0.375-0.371v-0.004l0,0l-52.164,51.922l-0.348,0.344v0.004l-0.113,0.114
		l28.546,28.671c7.199,7.199,16.758,10.797,26.188,10.797c0.125,0,0.125,0,0.125,0c9.434,0,18.867-3.598,26.191-10.797
		C491.972,261.523,491.972,238.062,477.448,223.539z" style="fill: rgb(75, 75, 75);"></path>
	<path class="st0" d="M428.296,150.805c3.598-10.922,5.461-22.59,5.461-34.754c0-15.511-3.102-30.41-8.566-43.937
		c-0.121-0.126-0.121-0.246-0.246-0.497c-0.621-1.488-1.367-2.98-1.988-4.468c-0.121-0.25-0.246-0.497-0.246-0.622
		c-0.746-1.613-1.488-3.102-2.359-4.59c-0.121-0.125-0.121-0.375-0.246-0.5C400.616,24.946,362.265,0.121,317.952,0h-0.125
		c-41.207,0-77.45,21.473-97.93,53.992c-11.422,17.875-18,39.098-18,61.813c0,15.515,3.106,30.285,8.691,43.938
		c0,0.125,0.121,0.25,0.121,0.496c0.622,1.488,1.367,2.98,1.989,4.469c0.125,0.25,0.246,0.496,0.371,0.621
		c0.621,1.614,1.488,3.102,2.234,4.594c0.125,0.122,0.125,0.246,0.25,0.496c10.797,20.231,27.305,36.864,47.535,47.661
		c0.125,0.125,0.25,0.125,0.375,0.25c1.613,0.746,3.102,1.489,4.59,2.234c0.25,0.125,0.496,0.25,0.622,0.371
		c1.492,0.621,3.105,1.367,4.594,1.988c0.125,0,0.25,0.122,0.496,0.122c13.527,5.586,28.301,8.691,43.938,8.816h0.125
		c2.981,0,5.957-0.125,8.938-0.375c0.992-0.125,1.863-0.125,2.855-0.246c1.738-0.125,3.352-0.375,5.086-0.622
		c2.98-0.374,5.836-0.992,8.691-1.613c1.984-0.375,3.973-0.871,5.832-1.492c0.992-0.246,2.11-0.496,3.102-0.867
		c2.113-0.622,4.098-1.367,6.086-2.11c2.481-0.871,4.965-1.988,7.446-3.106c1.738-0.742,3.351-1.488,4.965-2.355
		c3.102-1.614,6.207-3.352,9.062-5.215C402.725,199.336,420.105,177.121,428.296,150.805z M267.557,63.176
		c13.156-12.535,30.782-20.23,50.27-20.23h0.125c40.215,0,72.985,32.766,72.859,73.105c0,19.489-7.695,37.114-20.109,50.145
		c-13.278,14.027-32.145,22.715-52.875,22.715h-0.125c-40.215,0-72.981-32.891-72.856-73.106
		C244.846,95.074,253.534,76.332,267.557,63.176z" style="fill: rgb(75, 75, 75);"></path>
</g>
</svg>
