<svg xmlns="http://www.w3.org/2000/svg" width="19.535" height="24.284" viewBox="0 0 19.535 24.284">
  <g id="グループ_66" data-name="グループ 66" transform="translate(-8.232 -3.607)">
    <path id="パス_60" data-name="パス 60" d="M15.008,21.375a5.958,5.958,0,0,0-5.383,3.418,5.958,5.958,0,0,0-5.383-3.418H1.125v.567a5.957,5.957,0,0,0,5.95,5.95h5.1a5.957,5.957,0,0,0,5.95-5.95v-.567ZM7.075,26.758a4.824,4.824,0,0,1-4.784-4.25h1.95a4.824,4.824,0,0,1,4.784,4.25Zm5.1,0h-1.95a4.824,4.824,0,0,1,4.784-4.25h1.95A4.824,4.824,0,0,1,12.175,26.758Z" transform="translate(8)" fill="#8cbf92"/>
    <path id="パス_61" data-name="パス 61" d="M11.9,18.476a6.142,6.142,0,0,0,1.726,3.337l.33.329h.466A6.142,6.142,0,0,0,18,21a6.142,6.142,0,0,0,3.58,1.139h.466l.33-.329A6.143,6.143,0,0,0,24.1,18.477a6.143,6.143,0,0,0,3.337-1.726l.329-.33v-.466a6.142,6.142,0,0,0-1.139-3.58A6.142,6.142,0,0,0,27.768,8.8V8.329L27.438,8A6.143,6.143,0,0,0,24.1,6.274a6.143,6.143,0,0,0-1.726-3.337l-.33-.329H21.58A6.142,6.142,0,0,0,18,3.747a6.142,6.142,0,0,0-3.58-1.139h-.466l-.33.329A6.143,6.143,0,0,0,11.9,6.273,6.143,6.143,0,0,0,8.562,8l-.329.33v.466a6.142,6.142,0,0,0,1.139,3.58,6.142,6.142,0,0,0-1.139,3.58v.466l.329.33A6.143,6.143,0,0,0,11.9,18.476Zm-.263-6.9a3.907,3.907,0,0,1-1.125-2.306,3.907,3.907,0,0,1,2.426-.836h1.125V7.313A3.907,3.907,0,0,1,14.9,4.886,3.907,3.907,0,0,1,17.2,6.011l.8.795.8-.8A3.907,3.907,0,0,1,21.1,4.886a3.907,3.907,0,0,1,.836,2.427V8.438h1.125a3.907,3.907,0,0,1,2.426.836,3.907,3.907,0,0,1-1.125,2.306l-.795.8.8.8a3.907,3.907,0,0,1,1.125,2.306,3.907,3.907,0,0,1-2.427.836H21.938v1.125a3.907,3.907,0,0,1-.836,2.426A3.907,3.907,0,0,1,18.8,18.739l-.8-.795-.8.8A3.907,3.907,0,0,1,14.9,19.864a3.907,3.907,0,0,1-.836-2.426V16.313H12.938a3.907,3.907,0,0,1-2.426-.836,3.907,3.907,0,0,1,1.125-2.306l.795-.8Z" transform="translate(0 1)" fill="rgba(0,0,0,0.63)"/>
  </g>
</svg>
