<?xml version="1.0" encoding="UTF-8"?>
<svg id="_レイヤー_1" data-name="レイヤー_1" xmlns="http://www.w3.org/2000/svg" viewBox="0 0 226.5 212.36">
  <defs>
    <style>
      .cls-1 {
        fill: #575858;
        font-family: Futura-Bold, Futura;
        font-size: 77.95px;
        font-weight: 700;
      }

      .cls-2 {
        fill: #1f1f1f;
      }
    </style>
  </defs>
  <path class="cls-2" d="M221.46,96.53c-5.25-6.54-13.98-10.59-22.78-10.59h-63.01c-3.12,0-5.22-.67-6.25-2-1.2-1.56-1.28-4.47-.24-8.36.71-2.48,16.95-60.88-17.57-74.2-4.91-1.89-9.24-1.84-12.9.15-8.55,4.67-11.42,18.65-15.06,36.35-4.67,22.71-10.48,50.96-30.64,64.52h0c-3.17,2.13-5.65,4.58-7.49,7.41-2.06-2.57-5.23-4.23-8.78-4.23H11.25c-6.2,0-11.25,5.05-11.25,11.25v82.38c0,6.2,5.05,11.25,11.25,11.25h25.5c3.83,0,7.21-1.93,9.24-4.86,3.49,4.12,8.69,6.75,14.5,6.75h118.56c14.45,0,23.53-12.96,27.24-25.17l19.62-71.64c.01-.05.03-.1.04-.16,1.48-6.7-.11-13.4-4.5-18.86ZM41.5,199.21c0,2.62-2.13,4.75-4.75,4.75H11.25c-2.62,0-4.75-2.13-4.75-4.75v-82.38c0-2.62,2.13-4.75,4.75-4.75h25.5c2.62,0,4.75,2.13,4.75,4.75v82.38ZM219.62,113.91l-19.57,71.47c-3.01,9.9-10.1,20.48-20.99,20.48H60.5c-6.89,0-12.49-5.61-12.49-12.5v-68.32c0-7.91,2.66-13.23,8.64-17.25h0c22.37-15.04,28.48-44.74,33.38-68.6,3.04-14.77,5.91-28.73,11.81-31.95,1.92-1.05,4.36-.98,7.44.21,29,11.19,13.81,65.8,13.64,66.41-1.61,6.06-1.15,10.78,1.35,14.05,2.32,3.01,6.15,4.54,11.4,4.54h63.01c6.88,0,13.67,3.13,17.71,8.16,2.2,2.74,4.54,7.27,3.23,13.31Z"/>
  <text class="cls-1" transform="translate(79.66 179.17)"><tspan x="0" y="0">02</tspan></text>
</svg>