<!--?xml version="1.0" encoding="utf-8"?-->
<!-- Generator: Adobe Illustrator 18.0.0, SVG Export Plug-In . SVG Version: 6.00 Build 0)  -->

<svg version="1.1" id="_x31_0" xmlns="http://www.w3.org/2000/svg" xmlns:xlink="http://www.w3.org/1999/xlink" x="0px" y="0px" viewBox="0 0 512 512" style="width: 256px; height: 256px; opacity: 1;" xml:space="preserve">
<style type="text/css">
	.st0{fill:#374149;}
</style>
<g>
	<path class="st0" d="M111.59,292.125V155.346H16.131C7.253,155.346,0,162.599,0,171.477v218.136
		c0,8.882,7.253,16.134,16.131,16.134h45.147v80.777l72.598-80.777h176.294c8.878,0,16.132-7.253,16.132-16.134v-50.079H159.002
		C132.832,339.534,111.59,318.239,111.59,292.125z" style="fill: rgb(75, 75, 75);"></path>
	<path class="st0" d="M493.603,25.476H159.002c-10.098,0-18.397,8.298-18.397,18.397v111.474v136.779
		c0,10.095,8.298,18.393,18.397,18.393h167.301h33.307l82.637,91.92v-91.92h51.356c10.099,0,18.397-8.298,18.397-18.393V43.872
		C512,33.773,503.702,25.476,493.603,25.476z" style="fill: rgb(75, 75, 75);"></path>
</g>
</svg>
